<svg xmlns="http://www.w3.org/2000/svg" width="900" height="900" viewBox="0 0 900 900">
  <defs>
    <path id="topo-a" d="M0,-90 C 52,-96 96,-62 90,-12 C 106,40 66,92 18,86 C -40,102 -92,62 -86,6 C -102,-46 -50,-92 0,-90 Z"/>
    <path id="topo-b" d="M0,-70 C 40,-76 76,-44 68,2 C 86,42 44,80 4,72 C -42,84 -78,42 -70,-4 C -84,-46 -44,-76 0,-70 Z"/>
    <path id="topo-c" d="M0,-50 C 28,-56 56,-30 50,6 C 62,32 32,58 4,52 C -30,60 -56,30 -50,-6 C -58,-32 -28,-56 0,-50 Z"/>
    <path id="topo-d" d="M0,-30 C 18,-34 34,-18 30,4 C 38,20 18,34 4,30 C -18,36 -34,16 -30,-4 C -36,-20 -18,-32 0,-30 Z"/>
    <g id="topo-peak">
      <use href="#topo-a" transform="scale(1.55)"/>
      <use href="#topo-a" transform="scale(1.22)"/>
      <use href="#topo-b" transform="scale(1.1)"/>
      <use href="#topo-b" transform="scale(0.82)"/>
      <use href="#topo-c" transform="scale(0.9)"/>
      <use href="#topo-c" transform="scale(0.58)"/>
      <use href="#topo-d" transform="scale(0.8)"/>
      <use href="#topo-d" transform="scale(0.42)"/>
    </g>
    <g id="topo-peak-small">
      <use href="#topo-b" transform="scale(0.95)"/>
      <use href="#topo-c" transform="scale(0.95)"/>
      <use href="#topo-c" transform="scale(0.6)"/>
      <use href="#topo-d" transform="scale(0.7)"/>
      <use href="#topo-d" transform="scale(0.38)"/>
    </g>
  </defs>
  <g fill="none" stroke="currentColor" stroke-width="1.1" stroke-linejoin="round" stroke-linecap="round">
    <use href="#topo-peak" transform="translate(180,195) rotate(18)"/>
    <use href="#topo-peak" transform="translate(690,230) rotate(-32)"/>
    <use href="#topo-peak-small" transform="translate(470,120) rotate(55)"/>
    <use href="#topo-peak" transform="translate(300,640) rotate(70)"/>
    <use href="#topo-peak" transform="translate(740,710) rotate(-14)"/>
    <use href="#topo-peak-small" transform="translate(130,740) rotate(-40)"/>
    <use href="#topo-peak-small" transform="translate(510,440) rotate(28)"/>
    <use href="#topo-peak-small" transform="translate(820,470) rotate(10)"/>
    <use href="#topo-peak-small" transform="translate(80,450) rotate(-60)"/>
  </g>
</svg>
